:SAMPLES-PER-SECOND 30
:FULLY-SPECIFIED
:DEGREES
614
root  -1.27485 38.798 15.3541 -169.45 -72.6642 166.06
RightUpLeg  7.58894 -9.17818 -6.49242
RightLeg  37.7885 15.5624 12.3395
RightFoot  -10.0036 -0.283719 17.0566
RightToes  -8.3237e-009 0 -3.6325e-017
Spine  6.17294 3.1332 1.58911
Spine1  4.63393 5.09184 -10.2816
HEad  -18.3826 9.70741 -6.35425
LeftShoulder1  -0.586289 5.0358 -32.1219
LeftArm  -4.13313 8.45671 -38.7893
LeftForeArm  36.9268 -8.10665 -8.41919
LeftHand  -0.12392 8.84274 -2.35306
RightShoulder  -0.679002 -5.41655 28.8047
RightArm  20.2388 2.40301 51.1727
RightForeArm  11.2374 10.9623 8.3037
RightHand  -0.268431 5.73568 -3.12528
LeftUpLeg  -12.2611 3.72186 -11.1715
LeftLeg  16.7254 11.8528 2.15813
LeftFoot  -3.35598 -0.700637 10.2987
LeftToes  -1.18267e-011 3.61711e-011 9.57411e-011
615
root  -2.10277 38.8338 14.9783 -168.145 -72.0967 164.475
RightUpLeg  2.13099 -7.04198 -7.46026
RightLeg  47.8353 13.3487 14.9759
RightFoot  -3.01464 -1.53791 21.0534
RightToes  -8.3237e-009 0 -3.6325e-017
Spine  6.25379 2.91522 -0.64846
Spine1  4.56755 4.35939 -9.25244
HEad  -18.7288 10.7148 -7.78065
LeftShoulder1  -0.605172 5.07663 -32.3113
LeftArm  -2.04478 7.51722 -39.6423
LeftForeArm  34.3914 -10.0967 -8.45213
LeftHand  -0.0807766 7.95168 -1.62282
RightShoulder  -0.621928 -5.26415 28.599
RightArm  21.6742 0.772673 50.8778
RightForeArm  16.5499 9.27394 9.23872
RightHand  -0.160441 4.47758 -2.12583
LeftUpLeg  -10.5816 3.55317 -11.1485
LeftLeg  16.9492 12.3707 1.81445
LeftFoot  -5.00556 -0.503531 9.61522
LeftToes  -1.18267e-011 3.61711e-011 9.57411e-011
616
root  -2.88739 38.8545 14.6102 -167.715 -72.176 163.791
RightUpLeg  -3.04272 -5.54483 -7.97739
RightLeg  55.5445 9.73907 14.4661
RightFoot  0.26873 -1.9894 19.3562
RightToes  -8.3237e-009 0 -3.6325e-017
Spine  6.27211 2.61194 -2.5515
Spine1  5.15513 3.51719 -7.75497
HEad  -19.5397 11.1665 -8.77957
LeftShoulder1  -0.670445 5.21358 -33.062
LeftArm  1.58054 5.10615 -40.3274
LeftForeArm  31.6058 -12.0033 -8.46962
LeftHand  -0.0884334 7.6278 -2.23778
RightShoulder  -0.626749 -5.27011 28.7526
RightArm  23.835 -1.50655 49.5719
RightForeArm  20.9912 10.4823 9.02514
RightHand  -0.0125425 3.66127 -0.434156
LeftUpLeg  -9.12053 3.18505 -11.1893
LeftLeg  17.486 12.7017 2.17736
LeftFoot  -6.47507 -0.34494 9.03015
LeftToes  -1.18267e-011 3.61711e-011 9.57411e-011
617
root  -3.69425 38.9483 14.2433 -168.891 -72.4704 164.631
RightUpLeg  -7.60229 -3.95448 -7.97905
RightLeg  60.2999 5.77158 10.3764
RightFoot  -0.0974343 -1.55265 15.7076
RightToes  -8.3237e-009 0 -3.6325e-017
Spine  6.57626 2.20022 -3.56082
Spine1  5.48456 2.74084 -6.51771
HEad  -20.486 11.9373 -8.95773
LeftShoulder1  -0.637328 5.13778 -32.8437
LeftArm  6.56666 2.89489 -41.7894
LeftForeArm  27.2632 -14.4455 -8.0001
LeftHand  -0.0654446 7.35065 -1.39369
RightShoulder  -0.68252 -5.40961 29.1051
RightArm  25.5751 -3.98434 47.9031
RightForeArm  19.171 12.0051 8.58212
RightHand  -0.0927168 4.66817 -1.35824
LeftUpLeg  -7.01057 3.37692 -10.6038
LeftLeg  17.1366 12.3379 2.0509
LeftFoot  -7.57456 -0.246668 8.87532
LeftToes  -1.18267e-011 3.61711e-011 9.57411e-011
618
root  -4.46638 39.0438 13.8803 -169.742 -73.4034 165.445
RightUpLeg  -12.135 -2.88646 -7.86314
RightLeg  62.187 2.90577 5.50956
RightFoot  0.480017 -1.29024 12.4256
RightToes  -8.3237e-009 0 -3.6325e-017
Spine  6.94673 1.54993 -4.64458
Spine1  5.35731 1.67449 -4.96324
HEad  -21.06 12.7647 -9.08431
LeftShoulder1  -0.600864 5.05855 -32.494
LeftArm  11.679 1.16315 -43.2194
LeftForeArm  22.9098 -17.768 -6.45152
LeftHand  -0.0482679 6.70045 -0.922526
RightShoulder  -0.756322 -5.59501 29.5135
RightArm  25.7665 -6.53984 46.0642
RightForeArm  15.2993 13.1282 8.01803
RightHand  -0.170002 5.08444 -2.19512
LeftUpLeg  -5.14491 3.91747 -9.82893
LeftLeg  16.5694 11.1298 1.57271
LeftFoot  -8.50928 -0.167281 8.83503
LeftToes  -1.18267e-011 3.61711e-011 9.57411e-011
619
root  -5.265 39.1207 13.5383 -170.949 -74.3164 166.584
RightUpLeg  -15.7002 -1.40043 -7.75583
RightLeg  60.9602 1.78237 2.9977
RightFoot  0.0264083 -0.770489 7.71395
RightToes  -8.3237e-009 0 -3.6325e-017
Spine  7.32483 0.850465 -5.04242
Spine1  5.17771 0.724424 -3.79895
HEad  -21.42 11.7817 -7.76336
LeftShoulder1  -0.649315 5.17231 -32.7622
LeftArm  15.5291 -0.299752 -43.923
LeftForeArm  19.0513 -21.3756 -4.53867
LeftHand  -0.0329887 6.28776 -0.185485
RightShoulder  -0.710123 -5.49288 29.0285
RightArm  23.8487 -9.20909 45.3261
RightForeArm  13.7303 13.5793 7.44889
RightHand  -0.150667 5.38626 -1.93561
LeftUpLeg  -3.14393 4.28559 -9.06275
LeftLeg  15.887 9.91921 1.32781
LeftFoot  -9.56984 -0.0782522 8.74483
LeftToes  -1.18267e-011 3.61711e-011 9.57411e-011
620
root  -6.06439 39.1887 13.2106 -172.648 -75.2571 168.129
RightUpLeg  -18.1673 0.27738 -7.73588
RightLeg  56.5318 1.67322 2.28677
RightFoot  -0.915991 -0.55016 5.98993
RightToes  -8.3237e-009 0 -3.6325e-017
Spine  7.93676 0.301745 -5.10766
Spine1  4.83905 0.00704008 -2.85045
HEad  -20.69 6.71783 -2.92518
LeftShoulder1  -0.640795 5.16568 -32.4087
LeftArm  15.4401 -1.7576 -45.0735
LeftForeArm  18.6986 -23.7513 -4.10521
LeftHand  -0.0330909 6.3843 0.242819
RightShoulder  -0.719321 -5.51064 29.1623
RightArm  22.4058 -11.3739 44.0911
RightForeArm  13.2955 13.9963 6.94127
RightHand  -0.134856 5.02231 -1.80821
LeftUpLeg  -1.23694 4.6822 -8.22015
LeftLeg  15.5153 8.68332 1.26667
LeftFoot  -10.5556 0.00696126 8.28937
LeftToes  -1.18267e-011 3.61711e-011 9.57411e-011
621
root  -6.88713 39.223 12.8782 -174.413 -76.1086 169.74
RightUpLeg  -19.5768 1.64427 -7.91109
RightLeg  49.3562 2.24904 2.45785
RightFoot  -1.65707 -0.623123 7.20482
RightToes  -8.3237e-009 0 -3.6325e-017
Spine  8.38466 -0.169735 -4.67393
Spine1  4.70829 -0.46204 -2.41401
HEad  -20.4907 7.14895 -3.02548
LeftShoulder1  -0.674069 5.26122 -32.1954
LeftArm  14.1493 -2.9647 -45.5916
LeftForeArm  19.117 -26.3924 -4.63709
LeftHand  -0.0271008 5.64082 1.21392
RightShoulder  -0.779978 -5.65185 29.6708
RightArm  20.8929 -12.6063 42.8095
RightForeArm  14.4572 13.4742 6.82055
RightHand  -0.112239 5.16723 -1.54527
LeftUpLeg  0.751538 5.20679 -7.25173
LeftLeg  15.0497 7.37203 1.01689
LeftFoot  -11.6607 0.0927904 8.12474
LeftToes  -1.18267e-011 3.61711e-011 9.57411e-011
622
root  -7.74825 39.2227 12.5304 -174.851 -76.4232 170.3
RightUpLeg  -20.2562 2.91162 -8.29789
RightLeg  39.7216 2.74892 2.20143
RightFoot  -1.63361 -0.658599 7.60974
RightToes  -8.3237e-009 0 -3.6325e-017
Spine  8.13501 -0.200473 -4.54351
Spine1  5.00769 -0.514517 -1.70057
HEad  -20.5877 6.78552 -3.25168
LeftShoulder1  -0.728903 5.39603 -32.3637
LeftArm  13.9649 -4.51688 -46.0921
LeftForeArm  19.8327 -28.3606 -5.05094
LeftHand  -0.0291588 5.196 1.94431
RightShoulder  -0.75834 -5.61079 29.3417
RightArm  18.7326 -13.8101 42.3314
RightForeArm  15.4785 12.645 6.68826
RightHand  -0.118431 4.63305 -1.66469
LeftUpLeg  2.42569 5.5689 -6.69638
LeftLeg  14.6678 6.79952 0.965955
LeftFoot  -12.7092 0.170273 7.83299
LeftToes  -1.18267e-011 3.61711e-011 9.57411e-011
623
root  -8.63495 39.2206 12.186 -174.493 -77.208 170.354
RightUpLeg  -19.9407 2.94348 -8.68988
RightLeg  28.0525 2.41993 1.26651
RightFoot  -1.3405 -0.735675 8.29278
RightToes  -8.3237e-009 0 -3.6325e-017
Spine  7.57792 -0.501061 -4.15481
Spine1  5.28097 -0.734868 -1.27367
HEad  -20.7224 6.98565 -3.20583
LeftShoulder1  -0.710006 5.366 -31.972
LeftArm  12.9518 -5.21069 -46.7543
LeftForeArm  21.5282 -30.2691 -5.40122
LeftHand  -0.0262991 5.42917 1.82839
RightShoulder  -0.749068 -5.57715 29.4666
RightArm  16.5175 -14.4173 41.9039
RightForeArm  16.9637 11.1927 6.66457
RightHand  -0.0878228 5.06708 -1.27799
LeftUpLeg  4.06383 5.77589 -6.12441
LeftLeg  13.7288 5.63643 0.661601
LeftFoot  -13.6043 0.232055 7.59052
LeftToes  -1.18267e-011 3.61711e-011 9.57411e-011
624
root  -9.55467 39.2146 11.84 -173.804 -77.9982 170.346
RightUpLeg  -19.2411 0.7718 -8.32267
RightLeg  15.8557 3.35478 0.443585
RightFoot  -0.893516 -0.728907 7.89262
RightToes  -8.3237e-009 0 -3.6325e-017
Spine  6.87547 -0.667854 -3.63409
Spine1  5.35222 -0.889582 -0.553945
HEad  -20.3173 6.36915 -3.22817
LeftShoulder1  -0.713519 5.37239 -32.0289
LeftArm  13.3194 -5.64997 -46.9183
LeftForeArm  22.1529 -31.5379 -5.67118
LeftHand  -0.0237158 5.38347 1.8385
RightShoulder  -0.786905 -5.67161 29.6585
RightArm  15.032 -14.7096 41.2931
RightForeArm  17.6915 9.92767 6.57589
RightHand  -0.0957355 5.07926 -1.36743
LeftUpLeg  5.56495 6.01538 -5.44765
LeftLeg  12.6056 4.46154 0.218919
LeftFoot  -14.4368 0.285862 7.34613
LeftToes  -1.18267e-011 3.61711e-011 9.57411e-011
625
root  -10.5084 39.1697 11.4555 -172.235 -78.9969 169.336
RightUpLeg  -18.2343 -5.85821 -6.57475
RightLeg  5.10885 8.35165 -0.192735
RightFoot  -0.807388 -0.751023 8.0736
RightToes  -8.3237e-009 0 -3.6325e-017
Spine  6.21837 -0.777811 -3.33319
Spine1  5.52507 -1.11716 0.422086
HEad  -20.4167 5.90109 -3.2442
LeftShoulder1  -0.717872 5.38105 -32.0843
LeftArm  14.0457 -5.92899 -47.0845
LeftForeArm  21.7988 -32.1259 -5.83589
LeftHand  -0.0216886 5.58215 2.38061
RightShoulder  -0.756915 -5.59681 29.5073
RightArm  12.9444 -15.3455 41.3198
RightForeArm  18.6824 9.01844 6.09233
RightHand  -0.0629647 5.15243 -1.00503
LeftUpLeg  7.20542 6.20131 -4.80786
LeftLeg  11.56 3.02227 -0.170097
LeftFoot  -15.3095 0.336781 7.05631
LeftToes  -1.18267e-011 3.61711e-011 9.57411e-011
626
root  -11.5303 39.0523 11.0189 -171.187 -79.8964 168.051
RightUpLeg  -16.7806 -8.05937 -6.1787
RightLeg  -1.49483 8.35937 -0.18002
RightFoot  -1.11127 -0.88016 9.62867
RightToes  -8.3237e-009 0 -3.6325e-017
Spine  6.07112 -0.750408 -2.44852
Spine1  6.05727 -1.04865 0.413697
HEad  -20.6904 5.41259 -3.42778
LeftShoulder1  -0.729237 5.41024 -32.0943
LeftArm  15.5831 -6.3217 -47.156
LeftForeArm  21.6624 -31.9403 -5.79848
LeftHand  -0.0223461 5.37576 2.14202
RightShoulder  -0.823451 -5.74813 30.0611
RightArm  12.2897 -15.3056 40.9705
RightForeArm  18.1308 8.48264 5.89498
RightHand  -0.0936816 4.34082 -1.39177
LeftUpLeg  9.61516 6.49288 -4.07671
LeftLeg  10.9841 1.63344 -0.240368
LeftFoot  -16.5769 0.391322 6.38544
LeftToes  -1.18267e-011 3.61711e-011 9.57411e-011
